<?xml version="1.0" standalone="no"?>
<!DOCTYPE svg PUBLIC "-//W3C//DTD SVG 20010904//EN"
 "http://www.w3.org/TR/2001/REC-SVG-20010904/DTD/svg10.dtd">
<svg version="1.0" xmlns="http://www.w3.org/2000/svg"
 width="1024.000000pt" height="1024.000000pt" viewBox="0 0 1024.000000 1024.000000"
 preserveAspectRatio="xMidYMid meet">

<g transform="translate(0.000000,1024.000000) scale(0.100000,-0.100000)"
fill="#000000" stroke="none">
<path d="M0 5120 l0 -5120 5120 0 5120 0 0 5120 0 5120 -5120 0 -5120 0 0
-5120z m5515 3486 c414 -51 806 -166 1142 -335 410 -205 795 -493 1064 -796
501 -562 801 -1238 880 -1980 16 -149 16 -519 0 -680 -49 -491 -160 -878 -364
-1275 -256 -497 -649 -949 -1120 -1288 -326 -236 -772 -442 -1175 -542 -241
-60 -588 -100 -862 -100 -413 0 -917 106 -1317 276 -469 199 -810 427 -1153
773 -540 543 -871 1225 -976 2012 -21 160 -30 628 -15 815 56 690 368 1408
854 1961 294 335 647 603 1072 812 427 211 764 308 1235 356 174 17 560 13
735 -9z m1600 -376 c3 -6 -1 -7 -9 -4 -18 7 -21 14 -7 14 6 0 13 -4 16 -10z
m121 -81 c3 -5 -11 0 -30 12 -20 12 -39 25 -42 30 -3 5 11 0 30 -12 20 -12 39
-25 42 -30z m177 -128 c103 -82 80 -72 -33 15 -55 42 -100 79 -100 81 0 6 55
-33 133 -96z m107 -86 c13 -14 21 -25 18 -25 -2 0 -15 11 -28 25 -13 14 -21
25 -18 25 2 0 15 -11 28 -25z m55 -5550 c-54 -48 -123 -102 -105 -83 27 28
133 118 139 118 3 0 -12 -16 -34 -35z m-135 -108 c0 -2 -10 -12 -22 -23 l-23
-19 19 23 c18 21 26 27 26 19z m-4579 -74 c13 -16 12 -17 -3 -4 -17 13 -22 21
-14 21 2 0 10 -8 17 -17z m234 -158 c466 -296 1062 -511 1600 -577 140 -17
658 -17 810 0 339 38 635 114 973 249 206 81 439 198 575 287 15 10 27 16 27
13 0 -21 -343 -210 -530 -292 -560 -245 -1207 -347 -1820 -285 -465 47 -1072
244 -1441 466 -31 19 -60 34 -65 34 -4 0 -17 8 -28 18 -12 10 -59 42 -106 72
-102 64 -209 142 -210 153 0 5 17 -4 38 -20 20 -16 100 -70 177 -118z m4215
131 c0 -2 -17 -16 -37 -31 l-38 -26 35 30 c34 31 40 35 40 27z m-132 -99 c-29
-24 -98 -66 -86 -52 10 11 102 74 108 74 3 0 -7 -10 -22 -22z"/>
<path d="M4950 8594 c-467 -34 -757 -96 -1109 -236 -993 -395 -1693 -1134
-2044 -2158 -120 -351 -164 -674 -154 -1138 7 -343 34 -544 112 -845 167 -642
548 -1259 1044 -1691 427 -372 924 -631 1476 -769 524 -131 1034 -141 1555
-32 202 43 322 80 545 167 798 314 1485 952 1865 1733 238 488 344 967 343
1545 0 318 -27 535 -103 825 -70 270 -145 468 -266 705 -335 658 -855 1174
-1532 1518 -383 195 -800 316 -1247 362 -112 11 -403 20 -485 14z m1300 -384
c0 -5 -5 -10 -11 -10 -5 0 -7 5 -4 10 3 6 8 10 11 10 2 0 4 -4 4 -10z m26 -17
c-10 -10 -19 5 -10 18 6 11 8 11 12 0 2 -7 1 -15 -2 -18z m-816 -18 c589 -66
1123 -286 1579 -652 214 -171 476 -456 596 -648 l19 -30 -23 20 c-12 11 -39
42 -59 70 -20 27 -39 52 -42 55 -3 3 -25 32 -49 65 -81 110 -345 363 -505 482
-82 61 -160 117 -175 124 -14 7 -45 26 -69 42 -59 39 -296 157 -316 157 -9 0
-16 5 -16 10 0 6 -6 10 -13 10 -7 0 -48 15 -92 34 -92 38 -261 97 -290 101
-11 2 -47 8 -79 14 -72 13 -69 13 -61 2 3 -5 29 -17 58 -27 83 -27 209 -84
244 -110 17 -13 35 -24 38 -24 11 0 34 -27 28 -33 -3 -4 11 -16 31 -28 20 -11
36 -25 36 -30 0 -5 9 -9 20 -9 10 0 24 -9 30 -20 6 -11 15 -18 21 -15 5 4 9 2
9 -3 0 -6 12 -15 28 -21 15 -6 34 -15 42 -20 19 -12 53 -25 62 -23 4 1 10 -8
13 -19 4 -13 12 -18 24 -14 18 6 61 -27 61 -48 0 -9 2 -9 8 1 6 9 13 7 30 -8
11 -11 24 -20 28 -20 12 0 117 -82 152 -118 17 -19 32 -31 32 -27 0 4 7 2 15
-5 13 -11 13 -15 3 -22 -8 -6 -5 -7 11 -3 16 5 21 4 17 -4 -4 -6 -2 -11 4 -11
6 0 9 -4 6 -8 -3 -5 8 -22 25 -38 23 -22 32 -26 38 -15 6 9 11 10 15 2 4 -6 2
-11 -5 -11 -7 0 53 -66 132 -147 150 -154 236 -261 358 -448 68 -104 221 -394
221 -419 0 -6 -26 41 -59 105 -134 266 -291 482 -536 736 -159 166 -489 394
-743 515 -217 103 -666 238 -696 208 -6 -6 -2 -8 12 -5 21 4 29 -5 16 -18 -4
-4 -8 -22 -10 -41 -2 -29 0 -34 14 -29 15 6 15 5 3 -10 -7 -9 -16 -15 -20 -13
-4 3 -13 1 -21 -5 -12 -7 -11 -9 6 -9 11 0 24 -4 30 -10 5 -5 27 -12 49 -15
53 -8 65 -12 65 -25 0 -8 -6 -8 -20 0 -25 13 -26 2 -2 -17 9 -8 11 -12 5 -8
-9 4 -11 1 -7 -9 3 -9 15 -16 26 -16 14 0 18 5 14 15 -3 8 0 15 6 15 7 0 6 5
-2 15 -10 12 -10 15 3 15 11 0 15 -9 14 -34 -2 -33 -3 -34 -39 -31 -36 2 -56
-10 -23 -13 8 -1 21 -3 28 -4 8 -1 14 -7 14 -14 0 -8 -6 -10 -16 -6 -34 16
-54 7 -67 -28 -11 -32 -18 -28 -15 10 0 10 -1 11 -5 2 -3 -6 -10 -10 -15 -6
-13 8 -11 -10 3 -24 7 -7 8 -12 3 -12 -6 0 -5 -4 2 -8 8 -5 6 -14 -8 -31 -14
-17 -19 -19 -19 -7 0 9 4 16 9 16 14 0 9 39 -5 44 -16 6 -27 -21 -11 -28 9 -3
9 -5 0 -5 -7 -1 -21 9 -33 21 l-20 22 0 -26 c0 -15 7 -34 16 -42 8 -9 11 -16
5 -16 -6 0 -11 -7 -11 -15 0 -18 -29 -33 -56 -29 -18 3 -21 -1 -18 -24 2 -15
1 -20 -2 -12 -3 8 -16 23 -30 33 -21 16 -24 16 -24 2 0 -9 5 -13 10 -10 6 3
10 2 10 -4 0 -5 3 -17 7 -27 4 -12 3 -15 -5 -10 -7 4 -12 1 -12 -9 0 -9 4 -14
8 -11 5 3 9 -1 9 -8 0 -11 -4 -12 -17 -3 -11 6 -15 18 -12 31 3 12 1 17 -4 13
-4 -4 -10 -20 -12 -35 -2 -15 -8 -29 -13 -33 -6 -4 -6 -21 0 -48 l9 -42 -37 6
c-23 3 -28 2 -13 -3 24 -7 31 -24 13 -30 -6 -2 -11 1 -11 7 0 6 -4 11 -10 11
-14 0 -12 -16 3 -32 12 -11 12 -16 -1 -28 -14 -13 -15 -12 -9 3 3 9 3 18 -1
21 -5 3 -9 -11 -10 -31 -2 -20 -10 -49 -18 -64 -11 -23 -12 -34 -3 -51 9 -17
8 -23 -5 -30 -10 -5 -16 -19 -15 -31 2 -36 -2 -73 -8 -59 -10 24 -23 11 -23
-23 0 -21 5 -35 13 -35 7 0 8 -3 2 -8 -12 -9 -16 -44 -4 -36 5 3 9 -2 9 -10 0
-9 -7 -16 -15 -16 -8 0 -20 -10 -26 -22 -11 -21 -11 -22 5 -9 9 8 19 11 23 7
3 -3 1 -6 -5 -6 -7 0 -12 -7 -12 -15 0 -8 -6 -15 -12 -15 -9 0 -9 -3 1 -9 11
-7 12 -13 3 -23 -6 -8 -13 -34 -16 -59 -3 -24 -8 -55 -11 -69 -11 -47 -16 -75
-20 -120 -2 -25 -10 -88 -17 -140 -8 -52 -14 -116 -13 -142 0 -27 -3 -48 -7
-48 -4 0 -7 -12 -6 -27 0 -16 -2 -44 -5 -63 -7 -36 -28 -234 -30 -280 -1 -14
-5 -28 -10 -31 -4 -3 -8 -57 -9 -120 0 -98 3 -121 21 -160 28 -59 103 -142
132 -146 35 -5 36 -13 1 -13 -47 0 -39 -17 11 -23 23 -4 465 -9 982 -13 517
-3 942 -8 944 -10 2 -2 2 -7 -2 -10 -3 -3 -243 -10 -534 -14 -290 -5 -609 -11
-708 -14 -99 -3 -324 -9 -500 -12 -301 -6 -389 -14 -299 -29 22 -3 58 -10 81
-16 23 -5 62 -9 87 -9 25 0 48 -5 51 -10 4 -7 13 -7 26 0 13 7 19 7 19 0 0 -5
3 -9 8 -9 19 3 55 -2 50 -7 -3 -3 -52 -7 -109 -10 -93 -4 -133 -7 -234 -20
-16 -2 -43 -9 -58 -15 -20 -9 -38 -9 -65 -1 -65 19 -279 23 -1159 25 -475 0
-863 5 -863 9 0 4 96 8 213 9 116 0 221 2 232 5 11 2 66 4 121 5 56 0 119 5
140 9 24 6 40 5 42 0 2 -6 10 -6 21 0 10 5 218 11 467 14 453 6 597 10 734 23
71 6 73 7 35 14 -42 8 -2068 1 -2120 -7 -16 -2 -136 -7 -265 -10 -160 -3 -239
-9 -249 -17 -12 -10 -14 -9 -9 4 5 13 2 16 -13 12 -14 -4 -18 -1 -13 10 3 8
17 18 32 22 l27 7 -22 16 c-12 9 -33 42 -47 72 -14 30 -25 48 -25 38 -1 -9 -5
-18 -10 -20 -6 -1 -13 -19 -16 -38 -10 -51 -7 -399 3 -440 l8 -35 13 49 c14
58 43 117 66 136 13 11 12 6 -4 -21 -34 -59 -61 -176 -61 -269 0 -187 115
-551 271 -862 16 -32 27 -58 24 -58 -7 0 -107 202 -153 310 -82 195 -155 457
-188 675 -26 173 -27 714 -1 860 86 485 245 881 488 1220 27 39 57 81 66 95
39 58 228 279 275 322 10 9 18 22 18 29 0 7 3 10 6 6 9 -9 34 19 34 38 0 9 4
13 10 10 6 -3 7 1 4 9 -3 9 -1 16 6 16 6 0 8 5 4 11 -4 8 -9 7 -15 -2 -5 -8
-9 -10 -9 -6 0 13 -89 -54 -151 -114 -32 -31 -60 -54 -63 -51 -3 3 -6 1 -6 -4
0 -6 -7 -19 -16 -30 -8 -10 -12 -12 -8 -4 4 8 -7 0 -25 -17 -18 -18 -37 -33
-42 -33 -5 0 -10 -8 -10 -17 -1 -17 -2 -17 -6 0 -2 9 -7 17 -10 17 -9 0 -32
-32 -43 -57 -5 -13 -16 -23 -24 -23 -10 0 -13 -6 -9 -17 4 -9 2 -14 -3 -10 -5
3 -19 -6 -29 -19 -11 -14 -28 -33 -37 -42 -10 -9 -18 -22 -18 -28 0 -7 -6 -14
-14 -17 -8 -3 -40 -44 -72 -92 -31 -47 -61 -88 -65 -91 -5 -3 -9 -14 -9 -24 0
-11 -8 -24 -19 -29 -10 -6 -31 -36 -46 -68 -15 -32 -30 -60 -34 -63 -3 -3 -24
-40 -45 -83 -22 -43 -43 -80 -48 -83 -5 -3 -7 -12 -4 -20 3 -8 1 -14 -4 -14
-6 0 -10 -6 -11 -12 -1 -24 -46 -111 -51 -98 -9 28 -95 -251 -118 -380 -4 -25
-17 -97 -28 -160 -62 -341 -58 -790 10 -1135 104 -533 337 -1002 690 -1392 96
-106 296 -294 380 -358 31 -23 54 -45 51 -49 -4 -3 -1 -6 5 -6 16 0 182 -112
182 -122 0 -4 8 -8 18 -8 10 0 36 -17 58 -37 l39 -37 -50 29 c-221 126 -382
251 -580 450 -233 233 -377 424 -526 698 -131 239 -248 581 -303 887 -63 342
-63 819 0 1160 84 461 281 897 584 1290 95 123 378 406 500 500 371 285 733
461 1165 569 198 50 326 69 625 95 78 7 340 -4 480 -19z m575 -85 c3 -5 1 -10
-4 -10 -6 0 -11 5 -11 10 0 6 2 10 4 10 3 0 8 -4 11 -10z m-2411 -21 c-3 -5
-10 -7 -15 -3 -5 3 -7 10 -3 15 3 5 10 7 15 3 5 -3 7 -10 3 -15z m381 -29 c3
-5 -1 -10 -10 -10 -9 0 -13 5 -10 10 3 6 8 10 10 10 2 0 7 -4 10 -10z m-405
-150 c0 -5 -4 -10 -10 -10 -5 0 -10 5 -10 10 0 6 5 10 10 10 6 0 10 -4 10 -10z
m2263 -295 c-3 -9 -8 -14 -10 -11 -3 3 -2 9 2 15 9 16 15 13 8 -4z m-66 -35
c-1 -15 -6 -19 -22 -14 -16 4 -17 3 -5 -5 8 -5 11 -13 7 -18 -5 -4 -12 -1 -17
6 -9 16 -2 43 10 36 5 -3 11 -1 15 5 10 15 14 12 12 -10z m28 -30 c-3 -5 -11
-10 -16 -10 -6 0 -7 5 -4 10 3 6 11 10 16 10 6 0 7 -4 4 -10z m1555 -21 c0 -5
-4 -9 -10 -9 -5 0 -10 7 -10 16 0 8 5 12 10 9 6 -3 10 -10 10 -16z m-1880
-319 c0 -5 -2 -10 -4 -10 -3 0 -8 5 -11 10 -3 6 -1 10 4 10 6 0 11 -4 11 -10z
m1625 -1 c11 -17 -1 -21 -15 -4 -8 9 -8 15 -2 15 6 0 14 -5 17 -11z m40 -47
c-3 -3 -11 0 -18 7 -9 10 -8 11 6 5 10 -3 15 -9 12 -12z m-1712 -42 c-7 -28
-13 -25 -13 6 0 14 4 23 9 20 5 -3 7 -15 4 -26z m-42 -43 c-8 -8 -11 -7 -11 4
0 9 3 19 7 23 4 4 9 2 11 -4 3 -7 -1 -17 -7 -23z m-2551 3 c0 -5 -5 -10 -11
-10 -5 0 -7 5 -4 10 3 6 8 10 11 10 2 0 4 -4 4 -10z m4825 -257 c26 -39 34
-64 13 -41 -15 16 -49 78 -43 78 2 0 16 -17 30 -37z m59 -99 c3 -8 2 -12 -4
-9 -6 3 -10 10 -10 16 0 14 7 11 14 -7z m-444 -1484 c0 -5 -2 -10 -4 -10 -3 0
-8 5 -11 10 -3 6 -1 10 4 10 6 0 11 -4 11 -10z m-4270 -140 c0 -5 -6 -10 -14
-10 -8 0 -18 5 -21 10 -3 6 3 10 14 10 12 0 21 -4 21 -10z m-333 -66 c-3 -3
-12 -4 -19 -1 -8 3 -5 6 6 6 11 1 17 -2 13 -5z m-17 -1294 c6 -11 8 -20 6 -20
-3 0 -10 9 -16 20 -6 11 -8 20 -6 20 3 0 10 -9 16 -20z m3614 -899 c6 -9 -48
-43 -162 -103 -29 -15 -58 -28 -63 -28 -5 0 -22 -8 -36 -17 -15 -10 -38 -19
-52 -20 -15 -1 -45 -8 -68 -15 -46 -13 -65 -6 -42 16 16 16 156 79 238 107 30
10 59 23 65 28 6 5 26 11 45 14 18 3 38 10 44 16 13 13 24 14 31 2z m-134
-151 c-21 -13 -157 -65 -205 -78 -82 -23 -89 -22 -35 4 88 43 113 53 147 59
17 3 42 9 55 14 12 6 30 10 38 10 13 1 13 0 0 -9z m230 -60 c0 -5 -5 -10 -11
-10 -5 0 -7 5 -4 10 3 6 8 10 11 10 2 0 4 -4 4 -10z m-35 -20 c-3 -5 -14 -10
-23 -9 -14 0 -13 2 3 9 27 11 27 11 20 0z m-45 -14 c0 -2 -7 -7 -16 -10 -8 -3
-12 -2 -9 4 6 10 25 14 25 6z m-50 -26 c-8 -5 -19 -10 -25 -10 -5 0 -3 5 5 10
8 5 20 10 25 10 6 0 3 -5 -5 -10z m-40 -14 c0 -2 -7 -7 -16 -10 -8 -3 -12 -2
-9 4 6 10 25 14 25 6z m-45 -25 c-31 -28 -304 -110 -489 -146 -115 -22 -200
-33 -496 -65 -41 -4 -88 -6 -105 -4 -97 13 -278 34 -288 34 -5 0 -7 3 -4 7 4
3 42 5 84 3 160 -5 569 -3 598 3 17 4 73 14 125 23 136 23 392 89 480 123 76
30 112 39 95 22z m-2550 -11 c3 -5 1 -10 -4 -10 -6 0 -11 5 -11 10 0 6 2 10 4
10 3 0 8 -4 11 -10z m138 -77 c-7 -2 -19 -2 -25 0 -7 3 -2 5 12 5 14 0 19 -2
13 -5z m2297 -173 c-30 -11 -65 -19 -78 -19 -13 -1 -31 -5 -41 -10 -26 -15
-166 -51 -256 -67 -44 -8 -91 -17 -105 -20 -14 -2 -83 -12 -155 -20 -212 -26
-736 -6 -771 29 -4 4 -24 5 -43 2 -32 -5 -34 -4 -11 5 16 7 47 8 85 3 100 -13
758 -10 869 5 94 12 345 65 451 96 28 8 64 14 80 14 25 0 20 -3 -25 -18z
m-1660 -44 c0 -3 -4 -8 -10 -11 -5 -3 -10 -1 -10 4 0 6 5 11 10 11 6 0 10 -2
10 -4z m35 -16 c-3 -5 -10 -10 -16 -10 -5 0 -9 5 -9 10 0 6 7 10 16 10 8 0 12
-4 9 -10z m115 -21 c0 -11 -35 -12 -81 -2 -32 6 -32 7 -10 13 32 7 91 0 91
-11z m37 -5 c-3 -3 -12 -4 -19 -1 -8 3 -5 6 6 6 11 1 17 -2 13 -5z m1593 -154
c0 -5 -4 -10 -10 -10 -5 0 -10 5 -10 10 0 6 5 10 10 10 6 0 10 -4 10 -10z
m-165 -20 c3 -5 1 -10 -4 -10 -6 0 -11 5 -11 10 0 6 2 10 4 10 3 0 8 -4 11
-10z"/>
<path d="M5690 7680 c0 -5 5 -10 11 -10 5 0 7 5 4 10 -3 6 -8 10 -11 10 -2 0
-4 -4 -4 -10z"/>
<path d="M5720 7670 c0 -5 5 -10 11 -10 5 0 7 5 4 10 -3 6 -8 10 -11 10 -2 0
-4 -4 -4 -10z"/>
<path d="M5745 7640 c3 -5 8 -10 11 -10 2 0 4 5 4 10 0 6 -5 10 -11 10 -5 0
-7 -4 -4 -10z"/>
<path d="M5580 7450 c0 -5 5 -10 10 -10 6 0 10 5 10 10 0 6 -4 10 -10 10 -5 0
-10 -4 -10 -10z"/>
<path d="M5455 7260 c-3 -5 -1 -10 4 -10 6 0 11 5 11 10 0 6 -2 10 -4 10 -3 0
-8 -4 -11 -10z"/>
<path d="M4613 7074 c-7 -7 -13 -18 -13 -24 0 -5 -5 -10 -11 -10 -5 0 -7 -4
-4 -10 3 -5 1 -10 -4 -10 -14 0 -14 17 -1 25 6 3 10 12 10 18 -1 7 -8 3 -18
-9 -19 -22 -42 -21 -42 1 0 8 -4 17 -10 20 -6 3 -7 -1 -4 -9 4 -11 -2 -19 -17
-24 -19 -7 -20 -10 -6 -15 10 -4 17 -2 17 3 0 6 5 10 11 10 8 0 8 -4 -1 -14
-6 -8 -18 -12 -26 -9 -8 3 -24 -4 -35 -16 -11 -11 -25 -21 -32 -21 -7 0 -6 4
3 10 10 7 11 10 2 10 -8 0 -11 10 -7 32 4 18 3 30 0 26 -7 -7 -8 -12 -20 -75
-4 -24 -11 -43 -15 -43 -4 0 -5 10 -3 23 3 13 -2 29 -11 36 -13 11 -14 9 -10
-13 6 -33 -24 -52 -42 -28 -10 14 -12 14 -11 2 2 -8 6 -21 10 -28 5 -7 2 -14
-7 -18 -9 -3 -13 -11 -9 -17 3 -6 1 -7 -6 -3 -12 8 -41 -16 -41 -35 0 -8 -5
-8 -17 2 -9 8 -14 9 -11 4 9 -15 -42 -18 -59 -4 -11 10 -12 8 -7 -7 5 -18 5
-18 -10 0 -9 11 -16 15 -16 9 0 -7 7 -19 16 -27 8 -9 11 -16 5 -16 -5 0 -17 7
-26 16 -10 10 -22 13 -33 8 -9 -4 -20 -7 -24 -6 -3 1 -2 -15 4 -34 5 -20 7
-38 5 -40 -3 -3 -7 7 -11 21 -5 21 -10 24 -26 15 -24 -13 -43 -13 -35 0 10 15
2 12 -35 -15 -24 -18 -29 -25 -16 -25 9 0 14 -5 11 -10 -4 -6 -11 -8 -16 -5
-10 7 -55 -41 -64 -67 -4 -10 -14 -18 -23 -18 -14 0 -14 2 2 13 20 15 30 68
11 61 -7 -3 -12 -13 -11 -22 1 -12 -7 -17 -23 -17 -16 0 -25 -7 -27 -18 -1
-11 2 -17 10 -14 6 3 13 -4 13 -14 2 -18 0 -18 -14 -3 -13 13 -18 13 -25 2 -5
-8 -6 -2 -2 17 l6 30 -16 -29 c-20 -35 -20 -36 -1 -36 8 0 15 -4 15 -10 0 -13
-6 -13 -29 2 -12 7 -16 18 -13 31 3 14 1 18 -7 13 -6 -4 -9 -11 -6 -15 2 -5
-7 -21 -20 -37 -14 -16 -25 -25 -25 -20 0 5 8 18 18 29 9 11 11 17 3 12 -8 -4
-17 -2 -22 6 -7 11 -9 10 -10 -3 -3 -31 -4 -36 -11 -44 -5 -4 -8 -1 -8 7 -1 8
-9 -2 -20 -21 -15 -28 -19 -31 -20 -14 0 12 -11 27 -26 34 -24 13 -25 15 -7
28 17 14 17 14 0 8 -10 -3 -21 -6 -23 -6 -2 0 -2 -11 2 -25 5 -19 2 -25 -10
-25 -9 0 -16 -7 -16 -16 0 -8 -5 -12 -10 -9 -8 5 -8 11 0 20 7 9 6 16 -5 25
-10 8 -15 9 -15 2 0 -6 -6 -9 -14 -6 -8 3 -17 1 -20 -5 -4 -6 -12 -9 -19 -7
-7 1 -9 1 -4 -1 17 -10 5 -23 -18 -19 -18 3 -25 0 -25 -11 0 -9 -6 -13 -14
-10 -8 3 -16 1 -19 -6 -2 -6 -6 -3 -10 7 -4 9 -3 15 1 12 4 -2 14 -1 20 3 10
6 9 11 -3 21 -13 11 -15 10 -10 -1 4 -10 -2 -15 -16 -16 -12 -1 -26 -8 -31
-15 -6 -10 -12 -9 -24 7 -15 20 -16 19 -45 -13 -16 -18 -29 -29 -29 -26 0 4
-7 1 -15 -6 -10 -9 -15 -9 -15 -1 0 6 -5 11 -11 11 -6 0 -9 -7 -5 -15 3 -8 1
-15 -4 -15 -6 0 -10 5 -10 10 0 11 -40 -8 -51 -24 -4 -4 -11 -1 -16 9 -13 22
-27 6 -32 -36 0 -5 -6 -7 -11 -4 -6 3 -13 -1 -16 -10 -6 -14 -8 -14 -25 1 -28
25 -50 11 -46 -30 4 -33 3 -34 -19 -24 -13 6 -21 15 -18 19 3 5 0 9 -6 9 -8 0
-10 -9 -5 -27 11 -45 11 -48 -3 -45 -7 1 -22 -8 -32 -20 -11 -13 -19 -18 -20
-12 0 7 -6 14 -13 17 -10 4 -13 -2 -9 -19 4 -20 1 -23 -14 -17 -10 4 -13 8 -7
10 14 5 6 33 -9 33 -5 0 -6 -4 -3 -10 3 -5 1 -10 -5 -10 -7 0 -8 -6 0 -19 13
-25 13 -31 -1 -31 -5 0 -7 5 -4 10 11 18 -38 29 -62 13 -16 -11 -23 -11 -29
-2 -5 8 -3 9 6 4 10 -6 12 -4 7 8 -3 10 -4 24 0 32 5 14 8 14 22 2 25 -21 45
-32 37 -19 -3 5 0 13 6 16 9 4 8 5 -2 4 -22 -2 -51 13 -44 23 3 5 1 9 -4 9 -4
0 -19 -18 -31 -41 -13 -22 -25 -38 -28 -35 -7 7 39 96 49 96 5 0 8 5 8 10 0
20 -19 9 -37 -20 -20 -35 -33 -37 -59 -9 -10 11 -14 20 -9 19 21 -5 29 1 16 9
-12 8 -13 15 -3 35 9 21 9 24 -3 19 -8 -3 -12 -9 -9 -14 3 -5 1 -9 -4 -9 -23
0 -148 -291 -200 -465 -50 -168 -52 -180 -52 -256 0 -90 23 -246 40 -280 28
-52 75 -101 119 -123 43 -21 80 -31 208 -56 52 -10 2014 -4 2101 6 44 5 58 23
20 25 -13 1 -4 5 19 11 30 6 44 15 49 31 4 12 24 39 45 59 22 21 39 45 39 53
0 8 7 15 15 15 16 0 20 29 15 110 -2 25 -4 54 -4 65 -1 11 -4 25 -8 31 -12 18
-20 75 -20 142 0 34 -3 62 -7 62 -4 0 -8 10 -8 23 -2 40 -12 141 -18 182 -3
22 -6 57 -7 78 0 20 -4 37 -9 37 -5 0 -9 14 -9 31 0 16 -3 28 -7 26 -5 -3 -9
34 -11 81 -1 47 -8 92 -13 99 -6 7 -8 20 -5 29 3 9 3 21 -1 27 -9 14 -11 24
-19 91 -3 27 -10 60 -15 73 -5 14 -6 29 -3 35 4 7 2 8 -4 4 -7 -4 -10 1 -9 14
1 11 5 20 10 20 5 0 1 7 -7 16 -9 8 -16 26 -16 38 0 13 -7 29 -15 36 -8 7 -15
21 -15 32 0 10 -4 17 -9 14 -4 -3 -6 6 -3 20 4 24 2 26 -19 19 -23 -7 -24 -7
-4 9 14 12 15 14 4 10 -10 -3 -20 -1 -24 5 -3 6 -1 11 6 11 8 0 8 4 -1 15 -7
8 -16 12 -21 9 -5 -3 -9 0 -9 5 0 6 5 11 11 11 6 0 8 9 4 20 -4 13 -2 20 6 20
7 0 10 3 7 6 -4 3 -16 1 -27 -6 -16 -8 -21 -8 -21 1 0 8 -4 8 -15 -1 -10 -9
-15 -9 -15 -1 0 6 5 11 10 11 6 0 10 8 11 18 0 14 2 14 9 -3 8 -19 9 -19 9 3
1 19 -4 22 -28 20 -16 -1 -27 -6 -25 -10 3 -5 10 -6 15 -3 5 4 9 1 9 -4 0 -6
-11 -10 -25 -9 -29 3 -29 3 -14 30 9 16 8 19 -2 13 -7 -5 -17 -1 -26 10 -7 11
-13 15 -13 10 0 -5 7 -16 16 -26 10 -11 12 -19 5 -24 -6 -3 -11 -1 -11 5 0 6
-5 8 -12 4 -6 -4 -8 -3 -4 4 3 6 2 13 -3 16 -5 3 -12 -1 -15 -10 -4 -9 -9 -14
-12 -11 -3 3 0 15 6 27 14 26 10 33 -7 14z m-113 -98 c0 -3 -4 -8 -10 -11 -5
-3 -10 -1 -10 4 0 6 5 11 10 11 6 0 10 -2 10 -4z m213 -10 c4 -10 1 -13 -9 -9
-15 6 -19 23 -5 23 5 0 11 -7 14 -14z m102 -115 c3 -5 1 -12 -5 -16 -5 -3 -10
1 -10 9 0 18 6 21 15 7z m-695 -19 c0 -5 -7 -9 -15 -9 -8 0 -12 4 -9 9 3 4 9
8 15 8 5 0 9 -4 9 -8z m15 -32 c-3 -5 -12 -10 -18 -10 -7 0 -6 4 3 10 19 12
23 12 15 0z m-111 -36 c3 -8 2 -13 -2 -11 -4 2 -15 7 -25 10 -10 4 -16 11 -12
16 8 13 32 3 39 -15z m-394 -206 c0 -14 -18 -9 -24 8 -11 28 -6 39 9 20 8 -11
15 -23 15 -28z m-113 18 c-3 -8 -1 -17 6 -20 7 -2 8 -5 2 -5 -18 -1 -38 17
-31 28 10 16 29 13 23 -3z m83 -38 c0 -6 -6 -5 -15 2 -8 7 -15 14 -15 16 0 2
7 1 15 -2 8 -4 15 -11 15 -16z m-280 -4 c0 -2 -7 -4 -15 -4 -8 0 -15 4 -15 10
0 5 7 7 15 4 8 -4 15 -8 15 -10z m55 -14 c1 -10 -2 -17 -6 -14 -4 2 -7 13 -6
24 2 23 10 17 12 -10z m150 10 c3 -5 1 -10 -4 -10 -6 0 -11 5 -11 10 0 6 2 10
4 10 3 0 8 -4 11 -10z m-200 -20 c-3 -5 -11 -10 -16 -10 -6 0 -7 5 -4 10 3 6
11 10 16 10 6 0 7 -4 4 -10z m78 -35 c-3 -9 -8 -14 -10 -11 -3 3 -2 9 2 15 9
16 15 13 8 -4z m-213 0 c0 -2 -9 -9 -20 -15 -12 -6 -20 -7 -20 -1 0 5 8 12 18
14 9 3 18 5 20 6 1 0 2 -1 2 -4z m11 -18 c-10 -9 -11 -8 -5 6 3 10 9 15 12 12
3 -3 0 -11 -7 -18z m64 13 c3 -5 1 -10 -4 -10 -6 0 -11 5 -11 10 0 6 2 10 4
10 3 0 8 -4 11 -10z m-461 -211 c-8 -14 -21 -11 -21 5 0 8 6 12 14 9 7 -3 10
-9 7 -14z m-120 -34 c-4 -8 -8 -15 -10 -15 -2 0 -4 7 -4 15 0 8 4 15 10 15 5
0 7 -7 4 -15z m-23 -52 c-8 -15 -10 -15 -11 -2 0 17 10 32 18 25 2 -3 -1 -13
-7 -23z"/>
<path d="M4440 7019 c0 -5 5 -7 10 -4 6 3 10 8 10 11 0 2 -4 4 -10 4 -5 0 -10
-5 -10 -11z"/>
<path d="M4336 6985 c-3 -8 -1 -15 4 -15 6 0 10 7 10 15 0 8 -2 15 -4 15 -2 0
-6 -7 -10 -15z"/>
<path d="M4151 6904 c0 -11 3 -14 6 -6 3 7 2 16 -1 19 -3 4 -6 -2 -5 -13z"/>
<path d="M4213 6885 l-23 -22 35 11 c36 11 44 21 23 28 -7 2 -23 -6 -35 -17z"/>
<path d="M3735 6680 c-3 -5 -1 -10 4 -10 6 0 11 5 11 10 0 6 -2 10 -4 10 -3 0
-8 -4 -11 -10z"/>
<path d="M3560 6611 c0 -6 4 -13 10 -16 6 -3 7 1 4 9 -7 18 -14 21 -14 7z"/>
<path d="M3250 6600 c0 -5 5 -10 11 -10 5 0 7 5 4 10 -3 6 -8 10 -11 10 -2 0
-4 -4 -4 -10z"/>
<path d="M3415 6600 c-3 -5 -1 -10 4 -10 6 0 11 5 11 10 0 6 -2 10 -4 10 -3 0
-8 -4 -11 -10z"/>
<path d="M3350 6580 c-9 -6 -10 -10 -3 -10 6 0 15 5 18 10 8 12 4 12 -15 0z"/>
<path d="M3250 6550 c0 -5 5 -10 11 -10 5 0 7 5 4 10 -3 6 -8 10 -11 10 -2 0
-4 -4 -4 -10z"/>
<path d="M3151 6543 c0 -4 4 -17 9 -28 8 -19 9 -19 9 2 1 12 -3 25 -9 28 -5 3
-10 3 -9 -2z"/>
<path d="M3195 6540 c3 -5 -1 -10 -7 -13 -7 -2 -1 -4 14 -3 33 1 37 11 8 19
-11 3 -18 1 -15 -3z"/>
<path d="M3130 6521 c0 -6 4 -13 10 -16 6 -3 7 1 4 9 -7 18 -14 21 -14 7z"/>
<path d="M3070 6489 c0 -5 5 -7 10 -4 6 3 10 8 10 11 0 2 -4 4 -10 4 -5 0 -10
-5 -10 -11z"/>
<path d="M3040 6455 c0 -8 4 -15 10 -15 5 0 7 7 4 15 -4 8 -8 15 -10 15 -2 0
-4 -7 -4 -15z"/>
<path d="M3068 6463 c7 -3 16 -2 19 1 4 3 -2 6 -13 5 -11 0 -14 -3 -6 -6z"/>
<path d="M2916 6375 c3 -28 0 -29 -26 -15 -25 13 -21 -18 5 -32 12 -7 16 -7
11 0 -3 6 2 13 13 17 13 4 17 12 14 26 -8 29 -21 32 -17 4z"/>
</g>
</svg>
